# xmcd
#
# Track frame offsets: 
#        150
#        12658
#        27356
#        42708
#        55830
#        68869
#        81569
#        92105
#        102981
#        115792
#        129925
#        141401
#        153577
#        166537
#        181206
#        193780
#        206340
#        218837
#        231319
#        242173
#
# Disc length: 3398 seconds
#
# Revision: 0
# Processed by: cddbd v1.5.2PL0 Copyright (c) Steve Scherf et al.
# Submitted via: ExactAudioCopyFreeDBPlugin 1.0
#
DISCID=210d4414
DTITLE=Elmore James - The Essential Recordings
DYEAR=2017
DGENRE=Blues
TTITLE0=Dust my Broom (As Almo James)
TTITLE1=I Believe (My Time ain't long)
TTITLE2=I held my Baby last Night
TTITLE3=Baby what's wrong
TTITLE4=Sinful Woman
TTITLE5=Early in the Morning
TTITLE6=Hawaiian Boogie (Part2)
TTITLE7=Can't stop Loving
TTITLE8=Make a little Love
TTITLE9=Please find my Baby
TTITLE10=Strange kinda Feeling
TTITLE11=Make my Dreams come true
TTITLE12=Sho' Nuff I Do
TTITLE13=1839 Blues
TTITLE14=Dark and Dreary
TTITLE15=Standing at the Crossroads
TTITLE16=Late Hours at Midnight
TTITLE17=Happy Home
TTITLE18=No Love in my Heart
TTITLE19=I was a Fool
EXTD=
EXTT0=
EXTT1=
EXTT2=
EXTT3=
EXTT4=
EXTT5=
EXTT6=
EXTT7=
EXTT8=
EXTT9=
EXTT10=
EXTT11=
EXTT12=
EXTT13=
EXTT14=
EXTT15=
EXTT16=
EXTT17=
EXTT18=
EXTT19=
PLAYORDER=
